# Blender v2.69 (sub 0) OBJ File: ''
# www.blender.org
mtllib ellipsoid.mtl
o Mball_Meta
v 0.403975 0.394570 0.139459
v 0.372844 0.394570 0.155103
v 0.403975 0.383063 0.155103
v 0.321037 0.394570 0.205932
v 0.321037 0.392499 0.210864
v 0.403975 0.363170 0.210864
v 0.321037 0.424864 0.155103
v 0.290821 0.450332 0.155103
v 0.252550 0.450332 0.210864
v 0.317003 0.394570 0.210864
v 0.252550 0.450332 0.266626
v 0.317003 0.394570 0.266626
v 0.321037 0.450332 0.134150
v 0.290821 0.506093 0.155103
v 0.252550 0.506093 0.210864
v 0.486913 0.351975 0.210864
v 0.486913 0.368698 0.155103
v 0.403975 0.363170 0.266626
v 0.486913 0.351975 0.266626
v 0.569851 0.351975 0.266626
v 0.569851 0.351975 0.210864
v 0.569851 0.368698 0.155103
v 0.486913 0.394570 0.119545
v 0.569851 0.394570 0.119545
v 0.569851 0.421854 0.099341
v 0.486913 0.421854 0.099341
v 0.486913 0.450332 0.081745
v 0.569851 0.450332 0.081745
v 0.569851 0.506093 0.081745
v 0.486913 0.506093 0.081745
v 0.403975 0.450332 0.098516
v 0.403975 0.506093 0.098516
v 0.652789 0.449017 0.099341
v 0.652789 0.450332 0.098516
v 0.403975 0.449017 0.099341
v 0.401823 0.450332 0.099341
v 0.652789 0.394570 0.139459
v 0.683920 0.394570 0.155103
v 0.735726 0.424864 0.155103
v 0.735726 0.450332 0.134150
v 0.654941 0.450332 0.099341
v 0.735726 0.394570 0.205932
v 0.652789 0.383063 0.155103
v 0.652789 0.363170 0.210864
v 0.735726 0.392499 0.210864
v 0.739761 0.394570 0.210864
v 0.735726 0.392499 0.266626
v 0.739761 0.394570 0.266626
v 0.735726 0.394570 0.271559
v 0.765943 0.450332 0.155103
v 0.765943 0.506093 0.155103
v 0.735726 0.506093 0.134150
v 0.735726 0.531561 0.155103
v 0.321037 0.394570 0.271559
v 0.372844 0.394570 0.322388
v 0.403975 0.383063 0.322388
v 0.321037 0.392499 0.266626
v 0.403975 0.394570 0.338032
v 0.321037 0.450332 0.343341
v 0.401823 0.450332 0.378150
v 0.403975 0.449017 0.378150
v 0.321037 0.424864 0.322388
v 0.403975 0.450332 0.378974
v 0.401823 0.506093 0.378150
v 0.403975 0.506093 0.378974
v 0.403975 0.507408 0.378150
v 0.321037 0.506093 0.343341
v 0.321037 0.531561 0.322388
v 0.372844 0.561855 0.322388
v 0.403975 0.561855 0.338032
v 0.403975 0.573361 0.322388
v 0.321037 0.561855 0.271559
v 0.321037 0.563925 0.266626
v 0.403975 0.593254 0.266626
v 0.321037 0.563925 0.210864
v 0.403975 0.593254 0.210864
v 0.321037 0.561855 0.205932
v 0.372844 0.561855 0.155103
v 0.403975 0.573361 0.155103
v 0.403975 0.561855 0.139459
v 0.486913 0.561855 0.119545
v 0.486913 0.587727 0.155103
v 0.403975 0.507408 0.099341
v 0.486913 0.534571 0.099341
v 0.569851 0.534571 0.099341
v 0.569851 0.561855 0.119545
v 0.569851 0.587727 0.155103
v 0.652789 0.561855 0.139459
v 0.652789 0.573361 0.155103
v 0.652789 0.593254 0.210864
v 0.569851 0.604450 0.210864
v 0.652789 0.593254 0.266626
v 0.569851 0.604450 0.266626
v 0.652789 0.573361 0.322388
v 0.569851 0.587727 0.322388
v 0.569851 0.561855 0.357946
v 0.652789 0.561855 0.338032
v 0.652789 0.507408 0.378150
v 0.569851 0.534571 0.378150
v 0.569851 0.506093 0.395746
v 0.652789 0.506093 0.378974
v 0.569851 0.450332 0.395746
v 0.652789 0.450332 0.378974
v 0.652789 0.449017 0.378150
v 0.569851 0.421854 0.378150
v 0.569851 0.394570 0.357946
v 0.652789 0.394570 0.338032
v 0.652789 0.383063 0.322388
v 0.569851 0.368698 0.322388
v 0.683920 0.394570 0.322388
v 0.654941 0.450332 0.378150
v 0.654941 0.506093 0.378150
v 0.486913 0.506093 0.395746
v 0.486913 0.534571 0.378150
v 0.683920 0.561855 0.322388
v 0.735726 0.531561 0.322388
v 0.735726 0.506093 0.343341
v 0.765943 0.506093 0.322388
v 0.735726 0.561855 0.271559
v 0.739761 0.561855 0.266626
v 0.804213 0.506093 0.266626
v 0.735726 0.563925 0.266626
v 0.683920 0.561855 0.155103
v 0.321037 0.531561 0.155103
v 0.317003 0.561855 0.266626
v 0.290821 0.506093 0.322388
v 0.290821 0.450332 0.322388
v 0.321037 0.506093 0.134150
v 0.401823 0.506093 0.099341
v 0.317003 0.561855 0.210864
v 0.252550 0.506093 0.266626
v 0.486913 0.394570 0.357946
v 0.486913 0.368698 0.322388
v 0.486913 0.450332 0.395746
v 0.486913 0.421854 0.378150
v 0.486913 0.604450 0.210864
v 0.486913 0.604450 0.266626
v 0.486913 0.561855 0.357946
v 0.486913 0.587727 0.322388
v 0.652789 0.363170 0.266626
v 0.804213 0.450332 0.210864
v 0.804213 0.450332 0.266626
v 0.804213 0.506093 0.210864
v 0.735726 0.450332 0.343341
v 0.765943 0.450332 0.322388
v 0.735726 0.424864 0.322388
v 0.652789 0.507408 0.099341
v 0.654941 0.506093 0.099341
v 0.652789 0.506093 0.098516
v 0.735726 0.563925 0.210864
v 0.739761 0.561855 0.210864
v 0.735726 0.561855 0.205932
vn -0.225013 -0.864071 -0.450209
vn -0.360027 -0.762932 -0.536912
vn -0.241462 -0.687948 -0.684378
vn -0.234504 -0.959044 -0.158696
vn -0.387860 -0.906095 -0.168920
vn -0.455000 -0.799005 -0.393109
vn -0.474654 -0.668355 -0.572649
vn -0.885647 -0.382488 -0.263192
vn -0.681814 -0.340465 -0.647450
vn -0.560686 -0.798212 -0.220069
vn -0.563005 -0.802210 0.198645
vn -0.885830 -0.382122 0.263100
vn -0.462783 -0.296548 -0.835353
vn -0.885830 0.382122 -0.263100
vn -0.680990 0.339915 -0.648579
vn -0.071657 -0.892300 -0.445662
vn -0.070162 -0.986175 -0.150090
vn -0.070162 -0.986175 0.150090
vn -0.235084 -0.958831 0.159093
vn 0.070162 -0.986175 -0.150090
vn 0.070162 -0.986175 0.150090
vn 0.071657 -0.892300 -0.445662
vn 0.084353 -0.701529 -0.707602
vn -0.084353 -0.701529 -0.707602
vn -0.091067 -0.561022 -0.822748
vn 0.091067 -0.561022 -0.822748
vn 0.094607 -0.267861 -0.958770
vn -0.094607 -0.267861 -0.958770
vn -0.094607 0.267861 -0.958770
vn 0.094607 0.267861 -0.958770
vn -0.265938 0.262978 -0.927396
vn -0.265938 -0.262947 -0.927396
vn 0.265908 -0.262978 -0.927396
vn 0.250191 -0.544816 -0.800348
vn -0.250191 -0.544816 -0.800348
vn -0.365978 -0.285409 -0.885739
vn 0.241462 -0.687948 -0.684378
vn 0.462783 -0.296548 -0.835353
vn 0.472823 -0.668569 -0.573931
vn 0.360027 -0.762932 -0.536912
vn 0.365978 -0.285440 -0.885739
vn 0.456923 -0.802240 -0.384136
vn 0.387860 -0.906095 -0.168950
vn 0.234504 -0.959044 -0.158696
vn 0.225013 -0.864071 -0.450209
vn 0.563005 -0.802210 -0.198645
vn 0.560686 -0.798212 0.220069
vn 0.386486 -0.904141 0.181951
vn 0.452925 -0.795465 0.402539
vn 0.680990 -0.339915 -0.648579
vn 0.462783 0.296548 -0.835353
vn 0.681814 0.340465 -0.647450
vn 0.474654 0.668355 -0.572649
vn -0.224982 -0.864620 0.449171
vn -0.358257 -0.766198 0.533433
vn -0.454909 -0.798791 0.393597
vn -0.386486 -0.904141 0.181951
vn -0.241462 -0.687948 0.684378
vn -0.250160 -0.544816 0.800348
vn -0.365978 -0.285440 0.885739
vn -0.462783 -0.296548 0.835353
vn -0.472823 -0.668569 0.573931
vn -0.265938 -0.262978 0.927396
vn -0.265938 0.262978 0.927396
vn -0.365978 0.285440 0.885739
vn -0.250160 0.544816 0.800317
vn -0.241462 0.687948 0.684378
vn -0.360027 0.762932 0.536912
vn -0.474654 0.668355 0.572649
vn -0.462783 0.296548 0.835353
vn -0.225013 0.864071 0.450209
vn -0.234504 0.959044 0.158696
vn -0.387860 0.906095 0.168920
vn -0.455000 0.799005 0.393109
vn -0.235084 0.958831 -0.159093
vn -0.386486 0.904141 -0.181951
vn -0.224982 0.864620 -0.449171
vn -0.358257 0.766198 -0.533433
vn -0.454909 0.798791 -0.393567
vn -0.241462 0.687948 -0.684378
vn -0.071657 0.892300 -0.445662
vn -0.084353 0.701529 -0.707602
vn -0.091067 0.561022 -0.822748
vn -0.250191 0.544816 -0.800348
vn 0.084353 0.701529 -0.707602
vn 0.091067 0.561022 -0.822748
vn 0.071657 0.892300 -0.445662
vn 0.225013 0.864040 -0.450301
vn 0.241462 0.687948 -0.684378
vn 0.070162 0.986175 -0.150090
vn 0.233894 0.959349 -0.157750
vn 0.070162 0.986175 0.150090
vn 0.235237 0.958800 0.159154
vn 0.071657 0.892300 0.445662
vn 0.227180 0.864650 0.448012
vn 0.241462 0.687948 0.684378
vn 0.084353 0.701529 0.707602
vn 0.091067 0.561022 0.822748
vn 0.250191 0.544816 0.800348
vn 0.265938 0.262978 0.927396
vn 0.094607 0.267861 0.958770
vn 0.265938 -0.262978 0.927396
vn 0.094607 -0.267861 0.958770
vn 0.091067 -0.561022 0.822748
vn 0.250160 -0.544816 0.800348
vn 0.241462 -0.687948 0.684378
vn 0.084353 -0.701529 0.707602
vn 0.071657 -0.892300 0.445662
vn 0.224982 -0.864620 0.449171
vn 0.358257 -0.766198 0.533433
vn 0.365978 -0.285440 0.885739
vn 0.365978 0.285440 0.885739
vn -0.091067 0.561022 0.822748
vn -0.094607 0.267861 0.958770
vn 0.462783 0.296548 0.835353
vn 0.472823 0.668569 0.573931
vn 0.358623 0.765770 0.533799
vn 0.680990 0.339915 0.648579
vn 0.885830 0.382122 0.263100
vn 0.563005 0.802210 0.198645
vn 0.456221 0.801935 0.385632
vn 0.387707 0.905881 0.170446
vn 0.361064 0.761010 -0.538957
vn -0.472823 0.668569 -0.573931
vn -0.560686 0.798212 0.220069
vn -0.681814 0.340465 0.647450
vn -0.680990 -0.339915 0.648579
vn -0.365978 0.285440 -0.885739
vn -0.462783 0.296548 -0.835353
vn -0.563005 0.802210 -0.198645
vn -0.885647 0.382488 0.263192
vn -0.071657 -0.892300 0.445662
vn -0.084353 -0.701529 0.707602
vn -0.094607 -0.267861 0.958770
vn -0.091067 -0.561022 0.822748
vn -0.070162 0.986175 0.150090
vn -0.070162 0.986175 -0.150090
vn -0.071657 0.892300 0.445662
vn -0.084353 0.701529 0.707602
vn 0.235084 -0.958831 0.159093
vn 0.885647 0.382488 -0.263192
vn 0.885647 -0.382488 0.263192
vn 0.885830 -0.382122 -0.263100
vn 0.681814 -0.340465 0.647450
vn 0.462783 -0.296548 0.835353
vn 0.474654 -0.668355 0.572649
vn 0.365978 0.285440 -0.885739
vn 0.250191 0.544816 -0.800348
vn 0.265938 0.262978 -0.927396
vn 0.560686 0.798212 -0.220069
vn 0.389843 0.904721 -0.171606
vn 0.458480 0.794366 -0.398419
usemtl None
s 1
f 3//1 2//2 1//3
f 3//1 6//4 5//5 4//6
f 2//2 3//1 4//6
f 7//7 2//2 4//6
f 9//8 8//9 7//7 4//6
f 10//10 9//8 4//6
f 12//11 11//12 9//8 10//10
f 7//7 8//9 13//13
f 9//8 15//14 14//15 8//9
f 17//16 16//17 6//4 3//1
f 16//17 19//18 18//19 6//4
f 21//20 20//21 19//18 16//17
f 22//22 21//20 16//17 17//16
f 24//23 22//22 17//16 23//24
f 26//25 25//26 24//23 23//24
f 28//27 25//26 26//25 27//28
f 30//29 29//30 28//27 27//28
f 32//31 30//29 27//28 31//32
f 34//33 33//34 25//26 28//27
f 27//28 26//25 35//35 31//32
f 35//35 36//36 31//32
f 25//26 33//34 37//37 24//23
f 40//38 39//39 38//40 37//37
f 33//34 41//41 40//38 37//37
f 38//40 39//39 42//42
f 42//42 45//43 44//44 43//45
f 38//40 42//42 43//45
f 46//46 45//43 42//42
f 46//46 48//47 47//48 45//43
f 47//48 48//47 49//49
f 50//50 39//39 40//38
f 52//51 51//52 50//50 40//38
f 53//53 51//52 52//51
f 1//3 35//35 26//25 23//24
f 43//45 44//44 21//20 22//22
f 5//5 10//10 4//6
f 1//3 2//2 7//7 13//13
f 36//36 35//35 1//3 13//13
f 1//3 23//24 17//16 3//1
f 18//19 56//54 55//55 54//56
f 57//57 18//19 54//56
f 55//55 56//54 58//58
f 58//58 61//59 60//60 59//61
f 62//62 55//55 58//58 59//61
f 60//60 61//59 63//63
f 65//64 64//65 60//60 63//63
f 66//66 64//65 65//64
f 70//67 69//68 68//69 67//70
f 64//65 66//66 70//67 67//70
f 71//71 69//68 70//67
f 71//71 74//72 73//73 72//74
f 69//68 71//71 72//74
f 73//73 74//72 76//75 75//76
f 76//75 79//77 78//78 77//79
f 75//76 76//75 77//79
f 78//78 79//77 80//80
f 79//77 82//81 81//82 80//80
f 81//82 84//83 83//84 80//80
f 86//85 85//86 84//83 81//82
f 82//81 87//87 86//85 81//82
f 87//87 89//88 88//89 86//85
f 91//90 90//91 89//88 87//87
f 93//92 92//93 90//91 91//90
f 95//94 94//95 92//93 93//92
f 97//96 94//95 95//94 96//97
f 99//98 98//99 97//96 96//97
f 101//100 98//99 99//98 100//101
f 103//102 101//100 100//101 102//103
f 105//104 104//105 103//102 102//103
f 107//106 104//105 105//104 106//107
f 109//108 108//109 107//106 106//107
f 108//109 110//110 107//106
f 104//105 111//111 103//102
f 111//111 112//112 101//100 103//102
f 112//112 98//99 101//100
f 100//101 99//98 114//113 113//114
f 117//115 116//116 115//117 97//96
f 98//99 112//112 117//115 97//96
f 118//118 116//116 117//115
f 118//118 121//119 120//120 119//121
f 116//116 118//118 119//121
f 120//120 122//122 119//121
f 115//117 94//95 97//96
f 115//117 119//121 122//122 92//93
f 94//95 115//117 92//93
f 89//88 123//123 88//89
f 78//78 124//124 77//79
f 73//73 125//125 72//74
f 68//69 126//126 67//70
f 113//114 114//113 66//66 65//64
f 60//60 64//65 67//70 59//61
f 55//55 62//62 54//56
f 6//4 18//19 57//57 5//5
f 12//11 57//57 54//56
f 57//57 12//11 10//10 5//5
f 67//70 126//126 127//127 59//61
f 127//127 62//62 59//61
f 127//127 11//12 12//11 54//56
f 62//62 127//127 54//56
f 80//80 83//84 129//128 128//129
f 124//124 78//78 80//80 128//129
f 129//128 83//84 32//31
f 128//129 129//128 36//36 13//13
f 36//36 129//128 32//31 31//32
f 14//15 124//124 128//129
f 8//9 14//15 128//129 13//13
f 130//130 125//125 73//73 75//76
f 130//130 75//76 77//79
f 14//15 15//14 130//130 77//79
f 124//124 14//15 77//79
f 68//69 69//68 72//74
f 131//131 126//126 68//69 72//74
f 125//125 131//131 72//74
f 131//131 125//125 130//130 15//14
f 127//127 126//126 131//131 11//12
f 11//12 131//131 15//14 9//8
f 133//132 109//108 106//107 132//133
f 20//21 109//108 133//132 19//18
f 56//54 133//132 132//133 58//58
f 19//18 133//132 56//54 18//19
f 102//103 100//101 113//114 134//134
f 135//135 105//104 102//103 134//134
f 106//107 105//104 135//135 132//133
f 134//134 113//114 65//64 63//63
f 61//59 135//135 134//134 63//63
f 132//133 135//135 61//59 58//58
f 84//83 85//86 29//30 30//29
f 83//84 84//83 30//29 32//31
f 137//136 93//92 91//90 136//137
f 136//137 91//90 87//87 82//81
f 74//72 137//136 136//137 76//75
f 76//75 136//137 82//81 79//77
f 96//97 95//94 139//138 138//139
f 139//138 95//94 93//92 137//136
f 114//113 99//98 96//97 138//139
f 138//139 139//138 71//71 70//67
f 71//71 139//138 137//136 74//72
f 66//66 114//113 138//139 70//67
f 38//40 43//45 37//37
f 37//37 43//45 22//22 24//23
f 49//49 110//110 108//109 140//140
f 47//48 49//49 140//140
f 45//43 47//48 140//140 44//44
f 140//140 108//109 109//108 20//21
f 44//44 140//140 20//21 21//20
f 41//41 33//34 34//33
f 143//141 121//119 142//142 141//143
f 51//52 143//141 141//143 50//50
f 141//143 142//142 48//47 46//46
f 50//50 141//143 46//46 42//42
f 39//39 50//50 42//42
f 145//144 118//118 117//115 144//145
f 121//119 118//118 145//144 142//142
f 146//146 145//144 144//145
f 142//142 145//144 146//146 49//49
f 48//47 142//142 49//49
f 117//115 112//112 111//111 144//145
f 144//145 111//111 104//105 107//106
f 110//110 146//146 144//145 107//106
f 146//146 110//110 49//49
f 52//51 148//147 147//148 88//89
f 123//123 53//53 52//51 88//89
f 147//148 148//147 149//149
f 41//41 148//147 52//51 40//38
f 149//149 148//147 41//41 34//33
f 88//89 147//148 85//86 86//85
f 85//86 147//148 149//149 29//30
f 29//30 149//149 34//33 28//27
f 122//122 120//120 151//150 150//151
f 150//151 151//150 152//152
f 151//150 120//120 121//119 143//141
f 143//141 51//52 53//53 152//152
f 151//150 143//141 152//152
f 92//93 122//122 150//151 90//91
f 150//151 152//152 123//123 89//88
f 90//91 150//151 89//88
f 53//53 123//123 152//152
f 115//117 116//116 119//121
