# Blender v2.69 (sub 0) OBJ File: 'someblocks.blend2'
# www.blender.org
mtllib someblocks.mtl
o Cube.005
v 0.482086 0.383999 0.072129
v 0.482086 0.505870 0.072129
v 0.603957 0.505870 0.072129
v 0.603957 0.383999 0.072129
v 0.482086 0.383999 0.684687
v 0.482086 0.505870 0.684687
v 0.603957 0.505870 0.684687
v 0.603957 0.383999 0.684687
vn -1.000000 0.000000 0.000000
vn 0.000000 1.000000 0.000000
vn 1.000000 0.000000 0.000000
vn 0.000000 -1.000000 0.000000
vn 0.000000 0.000000 -1.000000
vn 0.000000 0.000000 1.000000
usemtl None
s off
f 5//1 6//1 2//1 1//1
f 6//2 7//2 3//2 2//2
f 7//3 8//3 4//3 3//3
f 8//4 5//4 1//4 4//4
f 1//5 2//5 3//5 4//5
f 8//6 7//6 6//6 5//6
o Cube.002
v 2.742801 0.277615 0.059027
v 2.742801 0.793409 0.059027
v 2.801770 0.793409 0.059027
v 2.801770 0.277615 0.059027
v 2.742801 0.277615 0.157391
v 2.742801 0.793409 0.157391
v 2.801770 0.793409 0.157391
v 2.801770 0.277615 0.157391
vn -1.000000 0.000000 0.000000
vn 0.000000 1.000000 0.000000
vn 1.000000 0.000000 0.000000
vn 0.000000 -1.000000 0.000000
vn 0.000000 0.000000 -1.000000
vn 0.000000 0.000000 1.000000
usemtl None
s off
f 13//7 14//7 10//7 9//7
f 14//8 15//8 11//8 10//8
f 15//9 16//9 12//9 11//9
f 16//10 13//10 9//10 12//10
f 9//11 10//11 11//11 12//11
f 16//12 15//12 14//12 13//12
o Cube.001
v 1.767574 0.670722 0.519670
v 1.767574 0.773077 0.519670
v 2.595005 0.773077 0.519670
v 2.595005 0.670722 0.519670
v 1.767574 0.670722 0.615399
v 1.767574 0.773077 0.615399
v 2.595005 0.773077 0.615399
v 2.595005 0.670722 0.615399
vn -1.000000 0.000000 0.000000
vn 0.000000 1.000000 0.000000
vn 1.000000 0.000000 0.000000
vn 0.000000 -1.000000 0.000000
vn 0.000000 0.000000 -1.000000
vn 0.000000 0.000000 1.000000
usemtl None
s off
f 21//13 22//13 18//13 17//13
f 22//14 23//14 19//14 18//14
f 23//15 24//15 20//15 19//15
f 24//16 21//16 17//16 20//16
f 17//17 18//17 19//17 20//17
f 24//18 23//18 22//18 21//18
o Cube
v 1.299087 0.713540 0.183709
v 1.299087 0.365757 0.183709
v 1.231332 0.365757 0.183709
v 1.231332 0.713540 0.183709
v 1.299087 0.713540 0.531491
v 1.299087 0.365757 0.531491
v 1.231332 0.365757 0.531491
v 1.231332 0.713540 0.531491
vn 0.000000 0.000000 -1.000000
vn 0.000000 0.000000 1.000000
vn 1.000000 0.000000 -0.000000
vn -0.000002 -1.000000 -0.000000
vn -1.000000 0.000000 -0.000000
vn 0.000002 1.000000 0.000000
usemtl Material
s off
f 25//19 26//19 27//19 28//19
f 29//20 32//20 31//20 30//20
f 25//21 29//21 30//21 26//21
f 26//22 30//22 31//22 27//22
f 27//23 31//23 32//23 28//23
f 29//24 25//24 28//24 32//24
o Cube.003
v 0.271435 0.277615 0.125405
v 0.271435 0.793409 0.125405
v 0.330404 0.793409 0.125405
v 0.330404 0.277615 0.125405
v 0.271435 0.277615 0.351828
v 0.271435 0.793409 0.351828
v 0.330404 0.793409 0.351828
v 0.330404 0.277615 0.351828
vn -1.000000 0.000000 0.000000
vn 0.000000 1.000000 0.000000
vn 1.000000 0.000000 0.000000
vn 0.000000 -1.000000 0.000000
vn 0.000000 0.000000 -1.000000
vn 0.000000 0.000000 1.000000
usemtl None
s off
f 37//25 38//25 34//25 33//25
f 38//26 39//26 35//26 34//26
f 39//27 40//27 36//27 35//27
f 40//28 37//28 33//28 36//28
f 33//29 34//29 35//29 36//29
f 40//30 39//30 38//30 37//30
o Cube.004
v 0.271435 0.277615 0.411286
v 0.271435 0.793409 0.411286
v 0.330404 0.793409 0.411286
v 0.330404 0.277615 0.411286
v 0.271435 0.277615 0.637709
v 0.271435 0.793409 0.637709
v 0.330404 0.793409 0.637709
v 0.330404 0.277615 0.637709
vn -1.000000 0.000000 0.000000
vn 0.000000 1.000000 0.000000
vn 1.000000 0.000000 0.000000
vn 0.000000 -1.000000 0.000000
vn 0.000000 0.000000 -1.000000
vn 0.000000 0.000000 1.000000
usemtl None
s off
f 45//31 46//31 42//31 41//31
f 46//32 47//32 43//32 42//32
f 47//33 48//33 44//33 43//33
f 48//34 45//34 41//34 44//34
f 41//35 42//35 43//35 44//35
f 48//36 47//36 46//36 45//36
o Cube.006
v 0.482086 0.604730 0.072129
v 0.482086 0.726601 0.072129
v 0.603957 0.726601 0.072129
v 0.603957 0.604730 0.072129
v 0.482086 0.604730 0.684687
v 0.482086 0.726601 0.684687
v 0.603957 0.726601 0.684687
v 0.603957 0.604730 0.684687
vn -1.000000 0.000000 0.000000
vn 0.000000 1.000000 0.000000
vn 1.000000 0.000000 0.000000
vn 0.000000 -1.000000 0.000000
vn 0.000000 0.000000 -1.000000
vn 0.000000 0.000000 1.000000
usemtl None
s off
f 53//37 54//37 50//37 49//37
f 54//38 55//38 51//38 50//38
f 55//39 56//39 52//39 51//39
f 56//40 53//40 49//40 52//40
f 49//41 50//41 51//41 52//41
f 56//42 55//42 54//42 53//42
