<?xml version="1.0" encoding="UTF-8" standalone="no"?>
<!-- Created with Inkscape (http://www.inkscape.org/) -->

<svg
   xmlns:dc="http://purl.org/dc/elements/1.1/"
   xmlns:cc="http://creativecommons.org/ns#"
   xmlns:rdf="http://www.w3.org/1999/02/22-rdf-syntax-ns#"
   xmlns:svg="http://www.w3.org/2000/svg"
   xmlns="http://www.w3.org/2000/svg"
   xmlns:sodipodi="http://sodipodi.sourceforge.net/DTD/sodipodi-0.dtd"
   xmlns:inkscape="http://www.inkscape.org/namespaces/inkscape"
   inkscape:version="0.48.4 r9939"
   version="1.1"
   id="svg2"
   height="297mm"
   width="210mm"
   sodipodi:docname="Zeichnung-Stack-Return.svg">
  <defs
     id="defs4">
    <linearGradient
       id="linearGradient4019">
      <stop
         style="stop-color:#0000ff;stop-opacity:1;"
         offset="0"
         id="stop4021" />
      <stop
         style="stop-color:#0000ff;stop-opacity:0;"
         offset="1"
         id="stop4023" />
    </linearGradient>
  </defs>
  <sodipodi:namedview
     id="base"
     pagecolor="#ffffff"
     bordercolor="#666666"
     borderopacity="1.0"
     inkscape:pageopacity="0.0"
     inkscape:pageshadow="2"
     inkscape:zoom="1"
     inkscape:cx="437.65893"
     inkscape:cy="663.54547"
     inkscape:document-units="px"
     inkscape:current-layer="svg2"
     showgrid="false"
     inkscape:window-width="1920"
     inkscape:window-height="1028"
     inkscape:window-x="0"
     inkscape:window-y="0"
     inkscape:window-maximized="1"
     inkscape:snap-global="true" />
  <metadata
     id="metadata7">
    <rdf:RDF>
      <cc:Work
         rdf:about="">
        <dc:format>image/svg+xml</dc:format>
        <dc:type
           rdf:resource="http://purl.org/dc/dcmitype/StillImage" />
        <dc:title></dc:title>
      </cc:Work>
    </rdf:RDF>
  </metadata>
  <g
     inkscape:label="Ebene 1"
     inkscape:groupmode="layer"
     id="layer1">
    <rect
       style="fill:none;stroke:#000000;stroke-width:0.86347502;stroke-opacity:1"
       id="rect2985"
       width="232.16422"
       height="575.2337"
       x="251.00981"
       y="217.57964" />
    <rect
       style="fill:#0000ff;fill-opacity:0.23880597;stroke:#000000;stroke-width:0.96652532;stroke-linecap:round;stroke-miterlimit:4;stroke-opacity:0.57089551;stroke-dasharray:none;stroke-dashoffset:0"
       id="rect3755"
       width="231.85867"
       height="58.938866"
       x="250.91904"
       y="217.97597" />
    <text
       xml:space="preserve"
       style="font-size:27.27749062px;font-style:normal;font-weight:normal;line-height:125%;letter-spacing:0px;word-spacing:0px;fill:#000000;fill-opacity:1;stroke:none;font-family:Sans"
       x="275.76105"
       y="249.15024"
       id="text3757"
       sodipodi:linespacing="125%"><tspan
         sodipodi:role="line"
         x="275.76105"
         y="249.15024"
         id="tspan3761"
         style="font-size:15.00261974px">Ungenutzer Speicher</tspan></text>
    <rect
       style="fill:#cbca00;fill-opacity:0.79477617;stroke:#000000;stroke-width:0.48452789;stroke-linecap:round;stroke-miterlimit:4;stroke-opacity:0.57089551;stroke-dasharray:none;stroke-dashoffset:0"
       id="rect3983"
       width="57.562984"
       height="57.864086"
       x="251.23366"
       y="566.53888" />
    <text
       xml:space="preserve"
       style="font-size:27.27749062px;font-style:normal;font-weight:normal;line-height:125%;letter-spacing:0px;word-spacing:0px;fill:#000000;fill-opacity:1;stroke:none;font-family:Sans"
       x="543.59003"
       y="598.32867"
       id="text3985"
       sodipodi:linespacing="125%"><tspan
         sodipodi:role="line"
         id="tspan3987"
         x="543.59003"
         y="598.32867"
         style="font-size:10.91099644px">Frame Pointer</tspan></text>
    <text
       xml:space="preserve"
       style="font-size:27.27749062px;font-style:normal;font-weight:normal;line-height:125%;letter-spacing:0px;word-spacing:0px;fill:#000000;fill-opacity:1;stroke:none;font-family:Sans"
       x="543.81781"
       y="658.25067"
       id="text3985-6"
       sodipodi:linespacing="125%"><tspan
         sodipodi:role="line"
         id="tspan3987-1"
         x="543.81781"
         y="658.25067"
         style="font-size:10.91099644px">Return adress</tspan><tspan
         sodipodi:role="line"
         x="543.81781"
         y="671.8894"
         style="font-size:10.91099644px"
         id="tspan5421">Little Endian</tspan></text>
    <path
       sodipodi:nodetypes="cccccccc"
       inkscape:connector-curvature="0"
       id="path3989-8"
       d="m 535.54112,656.89697 -31.85295,0 1.84212,6.24241 -9.4835,-8.07182 9.81718,-8.69337 -2.1758,6.88217 31.85295,0 z"
       style="fill:#af0000;fill-opacity:0.95149255;stroke:#000000;stroke-width:0.87233657;stroke-linecap:round;stroke-miterlimit:4;stroke-opacity:0.57089551;stroke-dashoffset:0" />
    <rect
       style="fill:#ff0a00;fill-opacity:0.79477617;stroke:#000000;stroke-width:0.48368719;stroke-linecap:round;stroke-miterlimit:4;stroke-opacity:0.57089551;stroke-dasharray:none;stroke-dashoffset:0"
       id="rect4015"
       width="58.106537"
       height="55.45797"
       x="251.0186"
       y="624.77191" />
    <rect
       style="fill:#0000ff;fill-opacity:0.22014926;stroke:#000000;stroke-width:1.0669055;stroke-linecap:round;stroke-miterlimit:4;stroke-opacity:0.57089551;stroke-dasharray:none;stroke-dashoffset:0"
       id="rect4017"
       width="230.6769"
       height="110.92896"
       x="251.82164"
       y="680.89111" />
    <text
       xml:space="preserve"
       style="font-size:27.27749062px;font-style:normal;font-weight:normal;line-height:125%;letter-spacing:0px;word-spacing:0px;fill:#000000;fill-opacity:1;stroke:none;font-family:Sans"
       x="299.33658"
       y="753.97864"
       id="text4027"
       sodipodi:linespacing="125%"><tspan
         sodipodi:role="line"
         x="299.33658"
         y="753.97864"
         style="font-size:10.91099644px"
         id="tspan4031">Speicher anderer Routinen</tspan></text>
    <rect
       style="fill:#cbca00;fill-opacity:0.79477617;stroke:#000000;stroke-width:0.48452789;stroke-linecap:round;stroke-miterlimit:4;stroke-opacity:0.57089551;stroke-dasharray:none;stroke-dashoffset:0"
       id="rect3983-0"
       width="57.562984"
       height="57.864086"
       x="309.12796"
       y="566.90057" />
    <rect
       style="fill:#cbca00;fill-opacity:0.79477617;stroke:#000000;stroke-width:0.48452789;stroke-linecap:round;stroke-miterlimit:4;stroke-opacity:0.57089551;stroke-dasharray:none;stroke-dashoffset:0"
       id="rect3983-1"
       width="57.562984"
       height="57.864086"
       x="367.04922"
       y="566.75195" />
    <rect
       style="fill:#cbca00;fill-opacity:0.79477617;stroke:#000000;stroke-width:0.48452789;stroke-linecap:round;stroke-miterlimit:4;stroke-opacity:0.57089551;stroke-dasharray:none;stroke-dashoffset:0"
       id="rect3983-4"
       width="57.562984"
       height="57.864086"
       x="424.92865"
       y="566.83716" />
    <rect
       style="fill:#ff0a00;fill-opacity:0.79477617;stroke:#000000;stroke-width:0.48368719;stroke-linecap:round;stroke-miterlimit:4;stroke-opacity:0.57089551;stroke-dasharray:none;stroke-dashoffset:0"
       id="rect4015-4"
       width="58.106537"
       height="55.45797"
       x="309.21783"
       y="624.88293" />
    <rect
       style="fill:#ff0a00;fill-opacity:0.79477617;stroke:#000000;stroke-width:0.48368719;stroke-linecap:round;stroke-miterlimit:4;stroke-opacity:0.57089551;stroke-dasharray:none;stroke-dashoffset:0"
       id="rect4015-6"
       width="58.106537"
       height="55.45797"
       x="366.59991"
       y="624.76239" />
    <rect
       style="fill:#ff0a00;fill-opacity:0.79477617;stroke:#000000;stroke-width:0.48368719;stroke-linecap:round;stroke-miterlimit:4;stroke-opacity:0.57089551;stroke-dasharray:none;stroke-dashoffset:0"
       id="rect4015-43"
       width="58.106537"
       height="55.45797"
       x="424.82587"
       y="625.00348" />
    <text
       xml:space="preserve"
       style="font-size:27.27749062px;font-style:normal;font-weight:normal;line-height:125%;letter-spacing:0px;word-spacing:0px;fill:#000000;fill-opacity:1;stroke:none;font-family:Sans"
       x="334.79733"
       y="714.42633"
       id="text5262"
       sodipodi:linespacing="125%"><tspan
         sodipodi:role="line"
         id="tspan5264"
         x="334.79733"
         y="714.42633">........</tspan></text>
    <text
       xml:space="preserve"
       style="font-size:27.27749062px;font-style:normal;font-weight:normal;line-height:125%;letter-spacing:0px;word-spacing:0px;fill:#000000;fill-opacity:1;stroke:none;font-family:Sans"
       x="443.53635"
       y="712.88751"
       id="text4062-69-2-8"
       sodipodi:linespacing="125%"><tspan
         sodipodi:role="line"
         id="tspan4064-0-9-9"
         x="443.53635"
         y="712.88751">A</tspan><tspan
         sodipodi:role="line"
         x="443.53635"
         y="727.95221"
         id="tspan4068-5-1-2"
         style="font-size:8.18324757px">(\x41)</tspan></text>
    <path
       sodipodi:nodetypes="ccccccccccccc"
       inkscape:connector-curvature="0"
       id="path3989-8-5"
       d="m 242.12938,658.39146 -143.596627,0 -8.932109,0.24436 -0.274173,-8.14601 -0.398851,-345.5243 -7.673349,8.04068 12.392989,-26.63954 13.79103,26.3822 -8.610479,-7.44228 -8.19e-4,0.80962 -0.294286,345.37148 143.596624,0 z"
       style="fill:#af0000;fill-opacity:0.95149255;stroke:#000000;stroke-width:2.24106264;stroke-linecap:round;stroke-miterlimit:4;stroke-opacity:0.57089551;stroke-dashoffset:0" />
    <text
       xml:space="preserve"
       style="font-size:27.27749062px;font-style:normal;font-weight:normal;line-height:125%;letter-spacing:0px;word-spacing:0px;fill:#000000;fill-opacity:1;stroke:none;font-family:Sans"
       x="72.57753"
       y="239.36438"
       id="text5331"
       sodipodi:linespacing="125%"><tspan
         sodipodi:role="line"
         x="72.57753"
         y="239.36438"
         id="tspan5339">Adresse:</tspan><tspan
         sodipodi:role="line"
         x="72.57753"
         y="273.46124"
         id="tspan5337">0xBFFFEBB0</tspan><tspan
         sodipodi:role="line"
         x="72.57753"
         y="307.55811"
         id="tspan5335" /></text>
    <text
       xml:space="preserve"
       style="font-size:27.27749062px;font-style:normal;font-weight:normal;line-height:125%;letter-spacing:0px;word-spacing:0px;fill:#000000;fill-opacity:1;stroke:none;font-family:Sans"
       x="313.00198"
       y="631.47864"
       id="text4062-13-7-0"
       sodipodi:linespacing="125%"><tspan
         sodipodi:role="line"
         id="tspan4064-31-97-0"
         x="313.00198"
         y="631.47864" /><tspan
         sodipodi:role="line"
         x="313.00198"
         y="660.1377"
         id="tspan4068-92-46-2"
         style="font-size:21.82199287px">\xEB</tspan></text>
    <text
       xml:space="preserve"
       style="font-size:40px;font-style:normal;font-weight:normal;line-height:125%;letter-spacing:0px;word-spacing:0px;fill:#000000;fill-opacity:1;stroke:none;font-family:Sans"
       x="327"
       y="686.36218"
       id="text5382"
       sodipodi:linespacing="125%"><tspan
         sodipodi:role="line"
         id="tspan5384"
         x="327"
         y="686.36218" /></text>
    <text
       xml:space="preserve"
       style="font-size:27.27749062px;font-style:normal;font-weight:normal;line-height:125%;letter-spacing:0px;word-spacing:0px;fill:#000000;fill-opacity:1;stroke:none;font-family:Sans"
       x="372.41043"
       y="631.33478"
       id="text4062-13-7-0-6"
       sodipodi:linespacing="125%"><tspan
         sodipodi:role="line"
         id="tspan4064-31-97-0-9"
         x="372.41043"
         y="631.33478" /><tspan
         sodipodi:role="line"
         x="372.41043"
         y="659.99384"
         id="tspan4068-92-46-2-5"
         style="font-size:21.82199287px">\xFF</tspan></text>
    <text
       xml:space="preserve"
       style="font-size:27.27749062px;font-style:normal;font-weight:normal;line-height:125%;letter-spacing:0px;word-spacing:0px;fill:#000000;fill-opacity:1;stroke:none;font-family:Sans"
       x="428.32928"
       y="631.33478"
       id="text4062-13-7-0-3"
       sodipodi:linespacing="125%"><tspan
         sodipodi:role="line"
         id="tspan4064-31-97-0-7"
         x="428.32928"
         y="631.33478" /><tspan
         sodipodi:role="line"
         x="428.32928"
         y="659.99384"
         id="tspan4068-92-46-2-9"
         style="font-size:21.82199287px">\xBF</tspan></text>
  </g>
  <path
     style="fill:#af0000;fill-opacity:0.95149255;stroke:#000000;stroke-width:1.78704691;stroke-linecap:round;stroke-miterlimit:4;stroke-opacity:0.57089551;stroke-dashoffset:0"
     d="m 229.33935,520.80352 0,-108.6646 -7.67921,6.2843 9.92971,-32.35248 10.69433,33.49079 -8.46624,-7.42261 0,108.6646 z"
     id="rect3866"
     inkscape:connector-curvature="0"
     sodipodi:nodetypes="cccccccc" />
  <text
     xml:space="preserve"
     style="font-size:10.91099644px;font-style:normal;font-weight:normal;line-height:125%;letter-spacing:0px;word-spacing:0px;fill:#000000;fill-opacity:1;stroke:none;font-family:Sans"
     x="-518.64294"
     y="212.01358"
     id="text3871"
     sodipodi:linespacing="125%"
     transform="matrix(0,-1,1,0,0,0)"><tspan
       sodipodi:role="line"
       id="tspan3873"
       x="-518.64294"
       y="212.01358">Wachstum des Stack</tspan></text>
  <rect
     style="fill:#00ce00;fill-opacity:0.63059698;stroke:#000000;stroke-width:1.35180676;stroke-linecap:round;stroke-miterlimit:4;stroke-opacity:0.57089551;stroke-dasharray:none;stroke-dashoffset:0"
     id="rect3875"
     width="56.651329"
     height="56.651329"
     x="251.6673"
     y="278.07724" />
  <rect
     y="278.07724"
     x="309.63007"
     height="56.651329"
     width="56.651329"
     id="rect3877"
     style="fill:#00ce00;fill-opacity:0.63059698;stroke:#000000;stroke-width:1.35180676;stroke-linecap:round;stroke-miterlimit:4;stroke-opacity:0.57089551;stroke-dasharray:none;stroke-dashoffset:0" />
  <rect
     style="fill:#00ce00;fill-opacity:0.63059698;stroke:#000000;stroke-width:1.35180676;stroke-linecap:round;stroke-miterlimit:4;stroke-opacity:0.57089551;stroke-dasharray:none;stroke-dashoffset:0"
     id="rect3879"
     width="56.651329"
     height="56.651329"
     x="367.57187"
     y="278.07724" />
  <rect
     y="278.07724"
     x="425.58167"
     height="56.651329"
     width="56.651329"
     id="rect3881"
     style="fill:#00ce00;fill-opacity:0.63059698;stroke:#000000;stroke-width:1.35180676;stroke-linecap:round;stroke-miterlimit:4;stroke-opacity:0.57089551;stroke-dasharray:none;stroke-dashoffset:0" />
  <rect
     y="335.94153"
     x="251.65266"
     height="56.651329"
     width="56.651329"
     id="rect3883"
     style="fill:#00ce00;fill-opacity:0.63059698;stroke:#000000;stroke-width:1.35180676;stroke-linecap:round;stroke-miterlimit:4;stroke-opacity:0.57089551;stroke-dasharray:none;stroke-dashoffset:0" />
  <rect
     style="fill:#00ce00;fill-opacity:0.63059698;stroke:#000000;stroke-width:1.35180676;stroke-linecap:round;stroke-miterlimit:4;stroke-opacity:0.57089551;stroke-dasharray:none;stroke-dashoffset:0"
     id="rect3885"
     width="56.651329"
     height="56.651329"
     x="309.61545"
     y="335.94153" />
  <rect
     y="335.94153"
     x="367.55725"
     height="56.651329"
     width="56.651329"
     id="rect3887"
     style="fill:#00ce00;fill-opacity:0.63059698;stroke:#000000;stroke-width:1.35180676;stroke-linecap:round;stroke-miterlimit:4;stroke-opacity:0.57089551;stroke-dasharray:none;stroke-dashoffset:0" />
  <rect
     style="fill:#00ce00;fill-opacity:0.63059698;stroke:#000000;stroke-width:1.35180676;stroke-linecap:round;stroke-miterlimit:4;stroke-opacity:0.57089551;stroke-dasharray:none;stroke-dashoffset:0"
     id="rect3889"
     width="56.651329"
     height="56.651329"
     x="425.22604"
     y="335.94153" />
  <rect
     style="fill:#00ce00;fill-opacity:0.63059698;stroke:#000000;stroke-width:1.35180676;stroke-linecap:round;stroke-miterlimit:4;stroke-opacity:0.57089551;stroke-dasharray:none;stroke-dashoffset:0"
     id="rect3891"
     width="56.651329"
     height="56.651329"
     x="251.65266"
     y="393.82098" />
  <rect
     y="393.82098"
     x="309.61545"
     height="56.651329"
     width="56.651329"
     id="rect3893"
     style="fill:#00ce00;fill-opacity:0.63059698;stroke:#000000;stroke-width:1.35180676;stroke-linecap:round;stroke-miterlimit:4;stroke-opacity:0.57089551;stroke-dasharray:none;stroke-dashoffset:0" />
  <rect
     style="fill:#00ce00;fill-opacity:0.63059698;stroke:#000000;stroke-width:1.35180676;stroke-linecap:round;stroke-miterlimit:4;stroke-opacity:0.57089551;stroke-dasharray:none;stroke-dashoffset:0"
     id="rect3895"
     width="56.651329"
     height="56.651329"
     x="367.55725"
     y="393.82098" />
  <rect
     y="393.82098"
     x="425.22604"
     height="56.651329"
     width="56.651329"
     id="rect3897"
     style="fill:#00ce00;fill-opacity:0.63059698;stroke:#000000;stroke-width:1.35180676;stroke-linecap:round;stroke-miterlimit:4;stroke-opacity:0.57089551;stroke-dasharray:none;stroke-dashoffset:0" />
  <rect
     y="451.78513"
     x="251.65266"
     height="56.651329"
     width="56.651329"
     id="rect3899"
     style="fill:#00ce00;fill-opacity:0.63059698;stroke:#000000;stroke-width:1.35180676;stroke-linecap:round;stroke-miterlimit:4;stroke-opacity:0.57089551;stroke-dasharray:none;stroke-dashoffset:0" />
  <rect
     style="fill:#00ce00;fill-opacity:0.63059698;stroke:#000000;stroke-width:1.35180676;stroke-linecap:round;stroke-miterlimit:4;stroke-opacity:0.57089551;stroke-dasharray:none;stroke-dashoffset:0"
     id="rect3901"
     width="56.651329"
     height="56.651329"
     x="309.61545"
     y="451.78513" />
  <rect
     y="451.78513"
     x="367.55725"
     height="56.651329"
     width="56.651329"
     id="rect3903"
     style="fill:#00ce00;fill-opacity:0.63059698;stroke:#000000;stroke-width:1.35180676;stroke-linecap:round;stroke-miterlimit:4;stroke-opacity:0.57089551;stroke-dasharray:none;stroke-dashoffset:0" />
  <rect
     style="fill:#00ce00;fill-opacity:0.63059698;stroke:#000000;stroke-width:1.35180676;stroke-linecap:round;stroke-miterlimit:4;stroke-opacity:0.57089551;stroke-dasharray:none;stroke-dashoffset:0"
     id="rect3905"
     width="56.651329"
     height="56.651329"
     x="425.56702"
     y="451.61465" />
  <rect
     style="fill:#00ce00;fill-opacity:0.63059698;stroke:#000000;stroke-width:1.35180676;stroke-linecap:round;stroke-miterlimit:4;stroke-opacity:0.57089551;stroke-dasharray:none;stroke-dashoffset:0"
     id="rect3907"
     width="56.651329"
     height="56.651329"
     x="251.65266"
     y="509.66455" />
  <rect
     y="509.66455"
     x="309.61545"
     height="56.651329"
     width="56.651329"
     id="rect3909"
     style="fill:#00ce00;fill-opacity:0.63059698;stroke:#000000;stroke-width:1.35180676;stroke-linecap:round;stroke-miterlimit:4;stroke-opacity:0.57089551;stroke-dasharray:none;stroke-dashoffset:0" />
  <rect
     style="fill:#00ce00;fill-opacity:0.63059698;stroke:#000000;stroke-width:1.35180676;stroke-linecap:round;stroke-miterlimit:4;stroke-opacity:0.57089551;stroke-dasharray:none;stroke-dashoffset:0"
     id="rect3911"
     width="56.651329"
     height="56.651329"
     x="367.55725"
     y="509.66455" />
  <rect
     y="509.32358"
     x="425.56702"
     height="56.651329"
     width="56.651329"
     id="rect3913"
     style="fill:#00ce00;fill-opacity:0.63059698;stroke:#000000;stroke-width:1.35180676;stroke-linecap:round;stroke-miterlimit:4;stroke-opacity:0.57089551;stroke-dasharray:none;stroke-dashoffset:0" />
  <path
     style="fill:#af0000;fill-opacity:0.95149255;stroke:#000000;stroke-width:1.78704691;stroke-linecap:round;stroke-miterlimit:4;stroke-opacity:0.57089551;stroke-dashoffset:0"
     d="m 506.78154,390.43571 0,108.66461 7.67922,-6.2843 -9.92971,32.35248 -10.69433,-33.4908 8.46624,7.42262 0,-108.66461 z"
     id="rect3866-7"
     inkscape:connector-curvature="0"
     sodipodi:nodetypes="cccccccc" />
  <text
     xml:space="preserve"
     style="font-size:10.91099644px;font-style:normal;font-weight:normal;line-height:125%;letter-spacing:0px;word-spacing:0px;fill:#000000;fill-opacity:1;stroke:none;font-family:Sans"
     x="395.94244"
     y="-522.74463"
     id="text3871-6"
     sodipodi:linespacing="125%"
     transform="matrix(0,1,-1,0,0,0)"><tspan
       sodipodi:role="line"
       id="tspan3873-7"
       x="395.94244"
       y="-522.74463">Speicheradressen</tspan></text>
  <text
     xml:space="preserve"
     style="font-size:32.0632782px;font-style:normal;font-weight:normal;line-height:125%;letter-spacing:0px;word-spacing:0px;fill:#000000;fill-opacity:1;stroke:none;font-family:Sans"
     x="519.70392"
     y="212.80505"
     id="text3954"
     sodipodi:linespacing="125%"
     transform="scale(0.93558488,1.0688501)"><tspan
       sodipodi:role="line"
       id="tspan3956"
       x="519.70392"
       y="212.80505"
       style="font-size:10.91099644px;font-weight:normal;-inkscape-font-specification:Sans">Niedrige Speicher adressen</tspan></text>
  <text
     xml:space="preserve"
     style="font-size:32.0632782px;font-style:normal;font-weight:normal;line-height:125%;letter-spacing:0px;word-spacing:0px;fill:#000000;fill-opacity:1;stroke:none;font-family:Sans"
     x="524.50616"
     y="741.52637"
     id="text3954-6"
     sodipodi:linespacing="125%"
     transform="scale(0.93558488,1.0688501)"><tspan
       sodipodi:role="line"
       x="524.50616"
       y="741.52637"
       style="font-size:10.91099644px;font-weight:normal;-inkscape-font-specification:Sans"
       id="tspan3979">Hohe Speicher adressen</tspan></text>
  <path
     sodipodi:nodetypes="cccccccc"
     inkscape:connector-curvature="0"
     id="path3989"
     d="m 534.97237,596.29305 -31.85296,0 1.84213,6.2424 -9.48351,-8.07182 9.81719,-8.69337 -2.17581,6.88217 31.85296,0 z"
     style="fill:#af0000;fill-opacity:0.95149255;stroke:#000000;stroke-width:0.87233657;stroke-linecap:round;stroke-miterlimit:4;stroke-opacity:0.57089551;stroke-dashoffset:0" />
  <path
     sodipodi:nodetypes="ssssccsssccsss"
     inkscape:connector-curvature="0"
     id="path5478"
     d="m 295.24996,309.22155 c 0,7.48406 -6.6793,13.5511 -14.91863,13.5511 -8.23935,0 -14.91866,-6.06704 -14.91866,-13.5511 0,-6.76519 5.57747,-12.41239 12.72308,-13.43096 0.35467,-0.0505 -0.0327,-2.73155 0.32915,-2.75888 0.34819,-0.009 0.86207,-0.0247 1.41357,-0.0373 0.67245,-2.22836 4.83243,-5.14698 5.95729,-5.17367 1.27478,-0.0302 2.17522,0.30113 2.20009,0.45051 0.0751,0.45095 -1.38504,0.1485 -2.13335,0.16524 -0.82759,0.0185 -4.01646,2.41163 -4.97042,4.5514 0.82888,-0.016 0.94141,-0.0195 1.41893,0.0259 0.16201,0.0159 -0.0808,2.76912 0.0796,2.78964 7.24534,0.92684 12.81935,6.58115 12.81935,13.418 z"
     style="fill:#000000;fill-opacity:1;stroke:#000000;stroke-width:0.4983815;stroke-linecap:round;stroke-miterlimit:4;stroke-opacity:0.57089551;stroke-dashoffset:0" />
  <text
     xml:space="preserve"
     style="font-size:27.27749062px;font-style:normal;font-weight:normal;line-height:125%;letter-spacing:0px;word-spacing:0px;fill:#000000;fill-opacity:1;stroke:none;font-family:Sans"
     x="270.85394"
     y="598.26489"
     id="text4062-13-3"
     sodipodi:linespacing="125%"><tspan
       sodipodi:role="line"
       id="tspan4064-31-3"
       x="270.85394"
       y="598.26489">A</tspan><tspan
       sodipodi:role="line"
       x="270.85394"
       y="613.32959"
       id="tspan4068-92-4"
       style="font-size:8.18324757px">(\x41)</tspan></text>
  <text
     xml:space="preserve"
     style="font-size:27.27749062px;font-style:normal;font-weight:normal;line-height:125%;letter-spacing:0px;word-spacing:0px;fill:#000000;fill-opacity:1;stroke:none;font-family:Sans"
     x="328.71826"
     y="597.78265"
     id="text4062-13-9"
     sodipodi:linespacing="125%"><tspan
       sodipodi:role="line"
       id="tspan4064-31-8"
       x="328.71826"
       y="597.78265">A</tspan><tspan
       sodipodi:role="line"
       x="328.71826"
       y="612.84735"
       id="tspan4068-92-0"
       style="font-size:8.18324757px">(\x41)</tspan></text>
  <text
     xml:space="preserve"
     style="font-size:27.27749062px;font-style:normal;font-weight:normal;line-height:125%;letter-spacing:0px;word-spacing:0px;fill:#000000;fill-opacity:1;stroke:none;font-family:Sans"
     x="387.06476"
     y="599.22925"
     id="text4062-13-2"
     sodipodi:linespacing="125%"><tspan
       sodipodi:role="line"
       id="tspan4064-31-35"
       x="387.06476"
       y="599.22925">A</tspan><tspan
       sodipodi:role="line"
       x="387.06476"
       y="614.29395"
       id="tspan4068-92-6"
       style="font-size:8.18324757px">(\x41)</tspan></text>
  <text
     xml:space="preserve"
     style="font-size:27.27749062px;font-style:normal;font-weight:normal;line-height:125%;letter-spacing:0px;word-spacing:0px;fill:#000000;fill-opacity:1;stroke:none;font-family:Sans"
     x="445.41122"
     y="600.6759"
     id="text4062-13-29"
     sodipodi:linespacing="125%"><tspan
       sodipodi:role="line"
       id="tspan4064-31-9"
       x="445.41122"
       y="600.6759">A</tspan><tspan
       sodipodi:role="line"
       x="445.41122"
       y="615.7406"
       id="tspan4068-92-07"
       style="font-size:8.18324757px">(\x41)</tspan></text>
  <text
     xml:space="preserve"
     style="font-size:27.27749062px;font-style:normal;font-weight:normal;line-height:125%;letter-spacing:0px;word-spacing:0px;fill:#000000;fill-opacity:1;stroke:none;font-family:Sans"
     x="256.733"
     y="631.297"
     id="text4062-13-7"
     sodipodi:linespacing="125%"><tspan
       sodipodi:role="line"
       id="tspan4064-31-97"
       x="256.733"
       y="631.297" /><tspan
       sodipodi:role="line"
       x="256.733"
       y="659.95605"
       id="tspan4068-92-46"
       style="font-size:21.82199287px">\xB0</tspan></text>
  <text
     xml:space="preserve"
     style="font-size:27.27749062px;font-style:normal;font-weight:normal;line-height:125%;letter-spacing:0px;word-spacing:0px;fill:#000000;fill-opacity:1;stroke:none;font-family:Sans"
     x="271.47739"
     y="712.66388"
     id="text4062-69-2"
     sodipodi:linespacing="125%"><tspan
       sodipodi:role="line"
       id="tspan4064-0-9"
       x="271.47739"
       y="712.66388">A</tspan><tspan
       sodipodi:role="line"
       x="271.47739"
       y="727.72858"
       id="tspan4068-5-1"
       style="font-size:8.18324757px">(\x41)</tspan></text>
  <flowRoot
     xml:space="preserve"
     id="flowRoot5212"
     style="fill:black;stroke:none;stroke-opacity:1;stroke-width:1px;stroke-linejoin:miter;stroke-linecap:butt;fill-opacity:1;font-family:Sans;font-style:normal;font-weight:normal;font-size:40px;line-height:125%;letter-spacing:0px;word-spacing:0px"><flowRegion
       id="flowRegion5214"><rect
         id="rect5216"
         width="370.52396"
         height="422.84985"
         x="-865.49872"
         y="544.65948" /></flowRegion><flowPara
       id="flowPara5218"></flowPara></flowRoot>  <path
     style="fill:#af0000;fill-opacity:0.95149255;stroke:#000000;stroke-width:1.78704691;stroke-linecap:round;stroke-miterlimit:4;stroke-opacity:0.57089551;stroke-dashoffset:0"
     d="m 126.39847,281.67107 4.88715,-0.004 0.12043,26.33981 86.14704,-0.0801 -6.2903,-7.6743 32.36022,9.90443 -33.48242,10.72049 7.416,-8.47203 -91.29586,0.0849 z"
     id="rect3866-0"
     inkscape:connector-curvature="0"
     sodipodi:nodetypes="cccccccccc" />
  <path
     sodipodi:nodetypes="ssssccsssccsss"
     inkscape:connector-curvature="0"
     id="path5478-9"
     d="m 350.79437,308.87613 c 0,7.48406 -6.6793,13.5511 -14.91863,13.5511 -8.23935,0 -14.91866,-6.06704 -14.91866,-13.5511 0,-6.76519 5.57747,-12.41238 12.72308,-13.43095 0.35467,-0.0505 -0.0327,-2.73155 0.32915,-2.75888 0.34819,-0.009 0.86207,-0.0247 1.41357,-0.0373 0.67245,-2.22836 4.83243,-5.14698 5.95729,-5.17367 1.27478,-0.0302 2.17522,0.30113 2.20009,0.45051 0.0751,0.45095 -1.38504,0.1485 -2.13335,0.16524 -0.82759,0.0185 -4.01646,2.41163 -4.97042,4.5514 0.82888,-0.016 0.94141,-0.0195 1.41893,0.0259 0.16201,0.0159 -0.0808,2.76912 0.0796,2.78964 7.24534,0.92684 12.81935,6.58114 12.81935,13.41799 z"
     style="fill:#000000;fill-opacity:1;stroke:#000000;stroke-width:0.4983815;stroke-linecap:round;stroke-miterlimit:4;stroke-opacity:0.57089551;stroke-dashoffset:0" />
  <path
     sodipodi:nodetypes="ssssccsssccsss"
     inkscape:connector-curvature="0"
     id="path5478-1"
     d="m 411.60555,308.87613 c 0,7.48406 -6.6793,13.5511 -14.91863,13.5511 -8.23935,0 -14.91866,-6.06704 -14.91866,-13.5511 0,-6.76519 5.57747,-12.41238 12.72308,-13.43095 0.35467,-0.0505 -0.0327,-2.73155 0.32915,-2.75888 0.34819,-0.009 0.86207,-0.0247 1.41357,-0.0373 0.67245,-2.22836 4.83243,-5.14698 5.95729,-5.17367 1.27478,-0.0302 2.17522,0.30113 2.20009,0.45051 0.0751,0.45095 -1.38504,0.1485 -2.13335,0.16524 -0.82759,0.0185 -4.01646,2.41163 -4.97042,4.5514 0.82888,-0.016 0.94141,-0.0195 1.41893,0.0259 0.16201,0.0159 -0.0808,2.76912 0.0796,2.78964 7.24534,0.92684 12.81935,6.58114 12.81935,13.41799 z"
     style="fill:#000000;fill-opacity:1;stroke:#000000;stroke-width:0.4983815;stroke-linecap:round;stroke-miterlimit:4;stroke-opacity:0.57089551;stroke-dashoffset:0" />
  <path
     sodipodi:nodetypes="ssssccsssccsss"
     inkscape:connector-curvature="0"
     id="path5478-97"
     d="m 468.8812,309.58324 c 0,7.48406 -6.6793,13.5511 -14.91863,13.5511 -8.23935,0 -14.91866,-6.06704 -14.91866,-13.5511 0,-6.76519 5.57747,-12.41239 12.72308,-13.43096 0.35467,-0.0505 -0.0327,-2.73155 0.32915,-2.75888 0.34819,-0.009 0.86207,-0.0247 1.41357,-0.0373 0.67245,-2.22836 4.83243,-5.14698 5.95729,-5.17367 1.27478,-0.0302 2.17522,0.30113 2.20009,0.45051 0.0751,0.45095 -1.38504,0.1485 -2.13335,0.16524 -0.82759,0.0185 -4.01646,2.41163 -4.97042,4.5514 0.82888,-0.016 0.94141,-0.0195 1.41893,0.0259 0.16201,0.0159 -0.0808,2.76912 0.0796,2.78964 7.24534,0.92684 12.81935,6.58115 12.81935,13.418 z"
     style="fill:#000000;fill-opacity:1;stroke:#000000;stroke-width:0.4983815;stroke-linecap:round;stroke-miterlimit:4;stroke-opacity:0.57089551;stroke-dashoffset:0" />
  <path
     sodipodi:nodetypes="ssssccsssccsss"
     inkscape:connector-curvature="0"
     id="path5478-4"
     d="m 295.64004,371.10153 c 0,7.48406 -6.6793,13.5511 -14.91863,13.5511 -8.23935,0 -14.91866,-6.06704 -14.91866,-13.5511 0,-6.76519 5.57747,-12.41239 12.72308,-13.43096 0.35467,-0.0505 -0.0327,-2.73155 0.32915,-2.75888 0.34819,-0.009 0.86207,-0.0247 1.41357,-0.0373 0.67245,-2.22836 4.83243,-5.14698 5.95729,-5.17367 1.27478,-0.0302 2.17522,0.30113 2.20009,0.45051 0.0751,0.45095 -1.38504,0.1485 -2.13335,0.16524 -0.82759,0.0185 -4.01646,2.41163 -4.97042,4.5514 0.82888,-0.016 0.94141,-0.0195 1.41893,0.0259 0.16201,0.0159 -0.0808,2.76912 0.0796,2.78964 7.24534,0.92684 12.81935,6.58115 12.81935,13.418 z"
     style="fill:#000000;fill-opacity:1;stroke:#000000;stroke-width:0.4983815;stroke-linecap:round;stroke-miterlimit:4;stroke-opacity:0.57089551;stroke-dashoffset:0" />
  <path
     sodipodi:nodetypes="ssssccsssccsss"
     inkscape:connector-curvature="0"
     id="path5478-8"
     d="m 352.20858,368.98021 c 0,7.48406 -6.6793,13.5511 -14.91863,13.5511 -8.23935,0 -14.91866,-6.06704 -14.91866,-13.5511 0,-6.76519 5.57747,-12.41239 12.72308,-13.43096 0.35467,-0.0505 -0.0327,-2.73155 0.32915,-2.75888 0.34819,-0.009 0.86207,-0.0247 1.41357,-0.0373 0.67245,-2.22836 4.83243,-5.14698 5.95729,-5.17367 1.27478,-0.0302 2.17522,0.30113 2.20009,0.45051 0.0751,0.45095 -1.38504,0.1485 -2.13335,0.16524 -0.82759,0.0185 -4.01646,2.41163 -4.97042,4.5514 0.82888,-0.016 0.94141,-0.0195 1.41893,0.0259 0.16201,0.0159 -0.0808,2.76912 0.0796,2.78964 7.24534,0.92684 12.81935,6.58115 12.81935,13.418 z"
     style="fill:#000000;fill-opacity:1;stroke:#000000;stroke-width:0.4983815;stroke-linecap:round;stroke-miterlimit:4;stroke-opacity:0.57089551;stroke-dashoffset:0" />
  <path
     sodipodi:nodetypes="ssssccsssccsss"
     inkscape:connector-curvature="0"
     id="path5478-0"
     d="m 410.19134,368.98021 c 0,7.48406 -6.6793,13.5511 -14.91863,13.5511 -8.23935,0 -14.91866,-6.06704 -14.91866,-13.5511 0,-6.76519 5.57747,-12.41239 12.72308,-13.43096 0.35467,-0.0505 -0.0327,-2.73155 0.32915,-2.75888 0.34819,-0.009 0.86207,-0.0247 1.41357,-0.0373 0.67245,-2.22836 4.83243,-5.14698 5.95729,-5.17367 1.27478,-0.0302 2.17522,0.30113 2.20009,0.45051 0.0751,0.45095 -1.38504,0.1485 -2.13335,0.16524 -0.82759,0.0185 -4.01646,2.41163 -4.97042,4.5514 0.82888,-0.016 0.94141,-0.0195 1.41893,0.0259 0.16201,0.0159 -0.0808,2.76912 0.0796,2.78964 7.24534,0.92684 12.81935,6.58115 12.81935,13.418 z"
     style="fill:#000000;fill-opacity:1;stroke:#000000;stroke-width:0.4983815;stroke-linecap:round;stroke-miterlimit:4;stroke-opacity:0.57089551;stroke-dashoffset:0" />
  <path
     sodipodi:nodetypes="ssssccsssccsss"
     inkscape:connector-curvature="0"
     id="path5478-94"
     d="m 468.8812,365.44468 c 0,7.48406 -6.6793,13.5511 -14.91863,13.5511 -8.23935,0 -14.91866,-6.06704 -14.91866,-13.5511 0,-6.76519 5.57747,-12.41239 12.72308,-13.43096 0.35467,-0.0505 -0.0327,-2.73155 0.32915,-2.75888 0.34819,-0.009 0.86207,-0.0247 1.41357,-0.0373 0.67245,-2.22836 4.83243,-5.14698 5.95729,-5.17367 1.27478,-0.0302 2.17522,0.30113 2.20009,0.45051 0.0751,0.45095 -1.38504,0.1485 -2.13335,0.16524 -0.82759,0.0185 -4.01646,2.41163 -4.97042,4.5514 0.82888,-0.016 0.94141,-0.0195 1.41893,0.0259 0.16201,0.0159 -0.0808,2.76912 0.0796,2.78964 7.24534,0.92684 12.81935,6.58115 12.81935,13.418 z"
     style="fill:#000000;fill-opacity:1;stroke:#000000;stroke-width:0.4983815;stroke-linecap:round;stroke-miterlimit:4;stroke-opacity:0.57089551;stroke-dashoffset:0" />
  <path
     sodipodi:nodetypes="ssssccsssccsss"
     inkscape:connector-curvature="0"
     id="path5478-91"
     d="m 297.05425,426.25586 c 0,7.48406 -6.6793,13.5511 -14.91863,13.5511 -8.23935,0 -14.91866,-6.06704 -14.91866,-13.5511 0,-6.76519 5.57747,-12.41239 12.72308,-13.43096 0.35467,-0.0505 -0.0327,-2.73155 0.32915,-2.75888 0.34819,-0.009 0.86207,-0.0247 1.41357,-0.0373 0.67245,-2.22836 4.83243,-5.14698 5.95729,-5.17367 1.27478,-0.0302 2.17522,0.30113 2.20009,0.45051 0.0751,0.45095 -1.38504,0.1485 -2.13335,0.16524 -0.82759,0.0185 -4.01646,2.41163 -4.97042,4.5514 0.82888,-0.016 0.94141,-0.0195 1.41893,0.0259 0.16201,0.0159 -0.0808,2.76912 0.0796,2.78964 7.24534,0.92684 12.81935,6.58115 12.81935,13.418 z"
     style="fill:#000000;fill-opacity:1;stroke:#000000;stroke-width:0.4983815;stroke-linecap:round;stroke-miterlimit:4;stroke-opacity:0.57089551;stroke-dashoffset:0" />
  <path
     sodipodi:nodetypes="ssssccsssccsss"
     inkscape:connector-curvature="0"
     id="path5478-88"
     d="m 349.38015,424.84165 c 0,7.48406 -6.6793,13.5511 -14.91863,13.5511 -8.23935,0 -14.91866,-6.06704 -14.91866,-13.5511 0,-6.76519 5.57747,-12.41239 12.72308,-13.43096 0.35467,-0.0505 -0.0327,-2.73155 0.32915,-2.75888 0.34819,-0.009 0.86207,-0.0247 1.41357,-0.0373 0.67245,-2.22836 4.83243,-5.14698 5.95729,-5.17367 1.27478,-0.0302 2.17522,0.30113 2.20009,0.45051 0.0751,0.45095 -1.38504,0.1485 -2.13335,0.16524 -0.82759,0.0185 -4.01646,2.41163 -4.97042,4.5514 0.82888,-0.016 0.94141,-0.0195 1.41893,0.0259 0.16201,0.0159 -0.0808,2.76912 0.0796,2.78964 7.24534,0.92684 12.81935,6.58115 12.81935,13.418 z"
     style="fill:#000000;fill-opacity:1;stroke:#000000;stroke-width:0.4983815;stroke-linecap:round;stroke-miterlimit:4;stroke-opacity:0.57089551;stroke-dashoffset:0" />
  <path
     sodipodi:nodetypes="ssssccsssccsss"
     inkscape:connector-curvature="0"
     id="path5478-00"
     d="m 410.89844,424.13454 c 0,7.48406 -6.6793,13.5511 -14.91863,13.5511 -8.23935,0 -14.91866,-6.06704 -14.91866,-13.5511 0,-6.76519 5.57747,-12.41239 12.72308,-13.43096 0.35467,-0.0505 -0.0327,-2.73155 0.32915,-2.75888 0.34819,-0.009 0.86207,-0.0247 1.41357,-0.0373 0.67245,-2.22836 4.83243,-5.14698 5.95729,-5.17367 1.27478,-0.0302 2.17522,0.30113 2.20009,0.45051 0.0751,0.45095 -1.38504,0.1485 -2.13335,0.16524 -0.82759,0.0185 -4.01646,2.41163 -4.97042,4.5514 0.82888,-0.016 0.94141,-0.0195 1.41893,0.0259 0.16201,0.0159 -0.0808,2.76912 0.0796,2.78964 7.24534,0.92684 12.81935,6.58115 12.81935,13.418 z"
     style="fill:#000000;fill-opacity:1;stroke:#000000;stroke-width:0.4983815;stroke-linecap:round;stroke-miterlimit:4;stroke-opacity:0.57089551;stroke-dashoffset:0" />
  <path
     sodipodi:nodetypes="ssssccsssccsss"
     inkscape:connector-curvature="0"
     id="path5478-5"
     d="m 466.05277,424.84165 c 0,7.48406 -6.6793,13.5511 -14.91863,13.5511 -8.23935,0 -14.91866,-6.06704 -14.91866,-13.5511 0,-6.76519 5.57747,-12.41239 12.72308,-13.43096 0.35467,-0.0505 -0.0327,-2.73155 0.32915,-2.75888 0.34819,-0.009 0.86207,-0.0247 1.41357,-0.0373 0.67245,-2.22836 4.83243,-5.14698 5.95729,-5.17367 1.27478,-0.0302 2.17522,0.30113 2.20009,0.45051 0.0751,0.45095 -1.38504,0.1485 -2.13335,0.16524 -0.82759,0.0185 -4.01646,2.41163 -4.97042,4.5514 0.82888,-0.016 0.94141,-0.0195 1.41893,0.0259 0.16201,0.0159 -0.0808,2.76912 0.0796,2.78964 7.24534,0.92684 12.81935,6.58115 12.81935,13.418 z"
     style="fill:#000000;fill-opacity:1;stroke:#000000;stroke-width:0.4983815;stroke-linecap:round;stroke-miterlimit:4;stroke-opacity:0.57089551;stroke-dashoffset:0" />
  <path
     sodipodi:nodetypes="ssssccsssccsss"
     inkscape:connector-curvature="0"
     id="path5478-12"
     d="m 296.34714,483.53151 c 0,7.48406 -6.6793,13.5511 -14.91863,13.5511 -8.23935,0 -14.91866,-6.06704 -14.91866,-13.5511 0,-6.76519 5.57747,-12.41239 12.72308,-13.43096 0.35467,-0.0505 -0.0327,-2.73155 0.32915,-2.75888 0.34819,-0.009 0.86207,-0.0247 1.41357,-0.0373 0.67245,-2.22836 4.83243,-5.14698 5.95729,-5.17367 1.27478,-0.0302 2.17522,0.30113 2.20009,0.45051 0.0751,0.45095 -1.38504,0.1485 -2.13335,0.16524 -0.82759,0.0185 -4.01646,2.41163 -4.97042,4.5514 0.82888,-0.016 0.94141,-0.0195 1.41893,0.0259 0.16201,0.0159 -0.0808,2.76912 0.0796,2.78964 7.24534,0.92684 12.81935,6.58115 12.81935,13.418 z"
     style="fill:#000000;fill-opacity:1;stroke:#000000;stroke-width:0.4983815;stroke-linecap:round;stroke-miterlimit:4;stroke-opacity:0.57089551;stroke-dashoffset:0" />
  <path
     sodipodi:nodetypes="ssssccsssccsss"
     inkscape:connector-curvature="0"
     id="path5478-99"
     d="m 350.08726,482.1173 c 0,7.48406 -6.6793,13.5511 -14.91863,13.5511 -8.23935,0 -14.91866,-6.06704 -14.91866,-13.5511 0,-6.76519 5.57747,-12.41239 12.72308,-13.43096 0.35467,-0.0505 -0.0327,-2.73155 0.32915,-2.75888 0.34819,-0.009 0.86207,-0.0247 1.41357,-0.0373 0.67245,-2.22836 4.83243,-5.14698 5.95729,-5.17367 1.27478,-0.0302 2.17522,0.30113 2.20009,0.45051 0.0751,0.45095 -1.38504,0.1485 -2.13335,0.16524 -0.82759,0.0185 -4.01646,2.41163 -4.97042,4.5514 0.82888,-0.016 0.94141,-0.0195 1.41893,0.0259 0.16201,0.0159 -0.0808,2.76912 0.0796,2.78964 7.24534,0.92684 12.81935,6.58115 12.81935,13.418 z"
     style="fill:#000000;fill-opacity:1;stroke:#000000;stroke-width:0.4983815;stroke-linecap:round;stroke-miterlimit:4;stroke-opacity:0.57089551;stroke-dashoffset:0" />
  <path
     sodipodi:nodetypes="ssssccsssccsss"
     inkscape:connector-curvature="0"
     id="path5478-2"
     d="m 406.6558,484.94572 c 0,7.48406 -6.6793,13.5511 -14.91863,13.5511 -8.23935,0 -14.91866,-6.06704 -14.91866,-13.5511 0,-6.76519 5.57747,-12.41239 12.72308,-13.43096 0.35467,-0.0505 -0.0327,-2.73155 0.32915,-2.75888 0.34819,-0.009 0.86207,-0.0247 1.41357,-0.0373 0.67245,-2.22836 4.83243,-5.14698 5.95729,-5.17367 1.27478,-0.0302 2.17522,0.30113 2.20009,0.45051 0.0751,0.45095 -1.38504,0.1485 -2.13335,0.16524 -0.82759,0.0185 -4.01646,2.41163 -4.97042,4.5514 0.82888,-0.016 0.94141,-0.0195 1.41893,0.0259 0.16201,0.0159 -0.0808,2.76912 0.0796,2.78964 7.24534,0.92684 12.81935,6.58115 12.81935,13.418 z"
     style="fill:#000000;fill-opacity:1;stroke:#000000;stroke-width:0.4983815;stroke-linecap:round;stroke-miterlimit:4;stroke-opacity:0.57089551;stroke-dashoffset:0" />
  <path
     sodipodi:nodetypes="ssssccsssccsss"
     inkscape:connector-curvature="0"
     id="path5478-52"
     d="m 465.34567,481.41019 c 0,7.48406 -6.6793,13.5511 -14.91863,13.5511 -8.23935,0 -14.91866,-6.06704 -14.91866,-13.5511 0,-6.76519 5.57747,-12.41239 12.72308,-13.43096 0.35467,-0.0505 -0.0327,-2.73155 0.32915,-2.75888 0.34819,-0.009 0.86207,-0.0247 1.41357,-0.0373 0.67245,-2.22836 4.83243,-5.14698 5.95729,-5.17367 1.27478,-0.0302 2.17522,0.30113 2.20009,0.45051 0.0751,0.45095 -1.38504,0.1485 -2.13335,0.16524 -0.82759,0.0185 -4.01646,2.41163 -4.97042,4.5514 0.82888,-0.016 0.94141,-0.0195 1.41893,0.0259 0.16201,0.0159 -0.0808,2.76912 0.0796,2.78964 7.24534,0.92684 12.81935,6.58115 12.81935,13.418 z"
     style="fill:#000000;fill-opacity:1;stroke:#000000;stroke-width:0.4983815;stroke-linecap:round;stroke-miterlimit:4;stroke-opacity:0.57089551;stroke-dashoffset:0" />
  <path
     sodipodi:nodetypes="ssssccsssccsss"
     inkscape:connector-curvature="0"
     id="path5478-14"
     d="m 292.1045,537.27163 c 0,7.48406 -6.6793,13.5511 -14.91863,13.5511 -8.23935,0 -14.91866,-6.06704 -14.91866,-13.5511 0,-6.76519 5.57747,-12.41239 12.72308,-13.43096 0.35467,-0.0505 -0.0327,-2.73155 0.32915,-2.75888 0.34819,-0.009 0.86207,-0.0247 1.41357,-0.0373 0.67245,-2.22836 4.83243,-5.14698 5.95729,-5.17367 1.27478,-0.0302 2.17522,0.30113 2.20009,0.45051 0.0751,0.45095 -1.38504,0.1485 -2.13335,0.16524 -0.82759,0.0185 -4.01646,2.41163 -4.97042,4.5514 0.82888,-0.016 0.94141,-0.0195 1.41893,0.0259 0.16201,0.0159 -0.0808,2.76912 0.0796,2.78964 7.24534,0.92684 12.81935,6.58115 12.81935,13.418 z"
     style="fill:#000000;fill-opacity:1;stroke:#000000;stroke-width:0.4983815;stroke-linecap:round;stroke-miterlimit:4;stroke-opacity:0.57089551;stroke-dashoffset:0" />
  <path
     sodipodi:nodetypes="ssssccsssccsss"
     inkscape:connector-curvature="0"
     id="path5478-3"
     d="m 350.08726,537.97873 c 0,7.48406 -6.6793,13.5511 -14.91863,13.5511 -8.23935,0 -14.91866,-6.06704 -14.91866,-13.5511 0,-6.76519 5.57747,-12.41239 12.72308,-13.43096 0.35467,-0.0505 -0.0327,-2.73155 0.32915,-2.75888 0.34819,-0.009 0.86207,-0.0247 1.41357,-0.0373 0.67245,-2.22836 4.83243,-5.14698 5.95729,-5.17367 1.27478,-0.0302 2.17522,0.30113 2.20009,0.45051 0.0751,0.45095 -1.38504,0.1485 -2.13335,0.16524 -0.82759,0.0185 -4.01646,2.41163 -4.97042,4.5514 0.82888,-0.016 0.94141,-0.0195 1.41893,0.0259 0.16201,0.0159 -0.0808,2.76912 0.0796,2.78964 7.24534,0.92684 12.81935,6.58115 12.81935,13.418 z"
     style="fill:#000000;fill-opacity:1;stroke:#000000;stroke-width:0.4983815;stroke-linecap:round;stroke-miterlimit:4;stroke-opacity:0.57089551;stroke-dashoffset:0" />
  <path
     sodipodi:nodetypes="ssssccsssccsss"
     inkscape:connector-curvature="0"
     id="path5478-145"
     d="m 409.48423,539.39295 c 0,7.48406 -6.6793,13.5511 -14.91863,13.5511 -8.23935,0 -14.91866,-6.06704 -14.91866,-13.5511 0,-6.76519 5.57747,-12.41239 12.72308,-13.43096 0.35467,-0.0505 -0.0327,-2.73155 0.32915,-2.75888 0.34819,-0.009 0.86207,-0.0247 1.41357,-0.0373 0.67245,-2.22836 4.83243,-5.14698 5.95729,-5.17367 1.27478,-0.0302 2.17522,0.30113 2.20009,0.45051 0.0751,0.45095 -1.38504,0.1485 -2.13335,0.16524 -0.82759,0.0185 -4.01646,2.41163 -4.97042,4.5514 0.82888,-0.016 0.94141,-0.0195 1.41893,0.0259 0.16201,0.0159 -0.0808,2.76912 0.0796,2.78964 7.24534,0.92684 12.81935,6.58115 12.81935,13.418 z"
     style="fill:#000000;fill-opacity:1;stroke:#000000;stroke-width:0.4983815;stroke-linecap:round;stroke-miterlimit:4;stroke-opacity:0.57089551;stroke-dashoffset:0" />
  <path
     sodipodi:nodetypes="ssssccsssccsss"
     inkscape:connector-curvature="0"
     id="path5478-06"
     d="m 465.34567,537.97873 c 0,7.48406 -6.6793,13.5511 -14.91863,13.5511 -8.23935,0 -14.91866,-6.06704 -14.91866,-13.5511 0,-6.76519 5.57747,-12.41239 12.72308,-13.43096 0.35467,-0.0505 -0.0327,-2.73155 0.32915,-2.75888 0.34819,-0.009 0.86207,-0.0247 1.41357,-0.0373 0.67245,-2.22836 4.83243,-5.14698 5.95729,-5.17367 1.27478,-0.0302 2.17522,0.30113 2.20009,0.45051 0.0751,0.45095 -1.38504,0.1485 -2.13335,0.16524 -0.82759,0.0185 -4.01646,2.41163 -4.97042,4.5514 0.82888,-0.016 0.94141,-0.0195 1.41893,0.0259 0.16201,0.0159 -0.0808,2.76912 0.0796,2.78964 7.24534,0.92684 12.81935,6.58115 12.81935,13.418 z"
     style="fill:#000000;fill-opacity:1;stroke:#000000;stroke-width:0.4983815;stroke-linecap:round;stroke-miterlimit:4;stroke-opacity:0.57089551;stroke-dashoffset:0" />
</svg>
